<svg xmlns="http://www.w3.org/2000/svg" version="1.1" xmlns:xlink="http://www.w3.org/1999/xlink" xmlns:svgjs="http://svgjs.dev/svgjs" width="1500" height="1500" viewBox="0 0 1500 1500"><rect width="1500" height="1500" fill="#ffffff"></rect><g transform="matrix(0.6666666666666666,0,0,0.6666666666666666,249.39393939393932,568.8055534730058)"><svg viewBox="0 0 396 143" data-background-color="#ffffff" preserveAspectRatio="xMidYMid meet" height="541" width="1500" xmlns="http://www.w3.org/2000/svg" xmlns:xlink="http://www.w3.org/1999/xlink"><g id="tight-bounds" transform="matrix(1,0,0,1,0.24000000000003752,0.34142103519457123)"><svg viewBox="0 0 395.5199999999999 142.31715792961083" height="142.31715792961083" width="395.5199999999999"><g><svg viewBox="0 0 395.52000000000004 142.31715792961086" height="142.31715792961083" width="395.5199999999999"><g transform="matrix(1,0,0,1,0,85.60191326130708)"><svg viewBox="0 0 395.52000000000004 56.7152446683038" height="56.7152446683038" width="395.52000000000004"><g id="textblocktransform"><svg viewBox="0 0 395.52000000000004 56.7152446683038" height="56.7152446683038" width="395.52000000000004" id="textblock"><g><svg viewBox="0 0 395.52000000000004 30.58949291631184" height="30.58949291631184" width="395.52000000000004"><g transform="matrix(1,0,0,1,0,0)"><svg width="395.52000000000004" viewBox="-0.4 -37.35 645.79 49.95" height="30.58949291631184" data-palette-color="#010c80"><path d="M24.75-36.95L34.8-13.1 43.6-36.75 49.55-36.75 35.25 0 34.55 0 24.55-23.8 14.6-0.05 13.9-0.05-0.4-36.75 5.55-36.75 14.35-13.1 24.45-36.95 24.75-36.95ZM60.05 0.5Q55.95 0.5 53.2-1.13 50.45-2.75 49.15-5.48 47.85-8.2 47.85-11.45L47.85-11.45Q47.85-15.1 49.37-17.85 50.9-20.6 53.6-22.08 56.3-23.55 59.7-23.55L59.7-23.55Q65-23.55 67.57-20.63 70.15-17.7 70.15-12.4L70.15-12.4Q70.15-11.05 70-9.6L70-9.6 53.5-9.6Q54.05-6.55 55.67-5.2 57.3-3.85 60.2-3.85L60.2-3.85Q62.6-3.85 64.15-4.25 65.7-4.65 67-5.35L67-5.35 68.65-1.5Q67.4-0.7 65.25-0.1 63.1 0.5 60.05 0.5L60.05 0.5ZM53.5-13.35L64.9-13.35Q64.95-16.45 63.55-17.73 62.15-19 59.55-19L59.55-19Q54.3-19 53.5-13.35L53.5-13.35ZM89.4 0.5Q86.59 0.5 84.37-0.88 82.15-2.25 81.3-4.05L81.3-4.05 81.2 0 76 0 76-36.75 81.3-36.75 81.3-22.6 81.05-18.7Q81.9-20.7 84.37-22.13 86.84-23.55 89.75-23.55L89.75-23.55Q93.15-23.55 95.67-22.03 98.2-20.5 99.55-17.78 100.9-15.05 100.9-11.45L100.9-11.45Q100.9-7.8 99.32-5.1 97.75-2.4 95.12-0.95 92.5 0.5 89.4 0.5L89.4 0.5ZM88.5-4Q91.75-4 93.5-6.08 95.25-8.15 95.25-11.45L95.25-11.45Q95.25-14.8 93.52-16.88 91.8-18.95 88.5-18.95L88.5-18.95Q85.65-18.95 83.7-16.98 81.75-15 81.75-11.8L81.75-11.8 81.75-11.45Q81.75-9.3 82.67-7.6 83.59-5.9 85.12-4.95 86.65-4 88.5-4L88.5-4ZM129.04 0.5Q125.94 0.5 123.31-0.98 120.69-2.45 119.12-5.18 117.54-7.9 117.54-11.55L117.54-11.55Q117.54-17 120.59-20.28 123.64-23.55 128.84-23.55L128.84-23.55Q131.74-23.55 134.14-22.13 136.54-20.7 137.39-18.7L137.39-18.7 137.14-22.6 137.14-36.75 142.44-36.75 142.44 0 137.29 0 137.19-4.05Q136.34-2.25 134.09-0.88 131.84 0.5 129.04 0.5L129.04 0.5ZM129.94-4.05Q132.79-4.05 134.74-6.03 136.69-8 136.69-11.2L136.69-11.2 136.69-11.55Q136.69-13.7 135.79-15.4 134.89-17.1 133.34-18.05 131.79-19 129.94-19L129.94-19Q126.74-19 124.99-16.93 123.24-14.85 123.24-11.55L123.24-11.55Q123.24-8.2 124.97-6.13 126.69-4.05 129.94-4.05L129.94-4.05ZM160.44 0.5Q156.34 0.5 153.59-1.13 150.84-2.75 149.54-5.48 148.24-8.2 148.24-11.45L148.24-11.45Q148.24-15.1 149.76-17.85 151.29-20.6 153.99-22.08 156.69-23.55 160.09-23.55L160.09-23.55Q165.39-23.55 167.96-20.63 170.54-17.7 170.54-12.4L170.54-12.4Q170.54-11.05 170.39-9.6L170.39-9.6 153.89-9.6Q154.44-6.55 156.06-5.2 157.69-3.85 160.59-3.85L160.59-3.85Q162.99-3.85 164.54-4.25 166.09-4.65 167.39-5.35L167.39-5.35 169.04-1.5Q167.79-0.7 165.64-0.1 163.49 0.5 160.44 0.5L160.44 0.5ZM153.89-13.35L165.29-13.35Q165.34-16.45 163.94-17.73 162.54-19 159.94-19L159.94-19Q154.69-19 153.89-13.35L153.89-13.35ZM184.64 0L172.54-22.95 178.69-22.95 183.64-12.6 185.24-8.45 186.84-12.6 191.74-22.95 197.74-22.95 185.69 0 184.64 0ZM211.43 0.5Q207.33 0.5 204.58-1.13 201.83-2.75 200.53-5.48 199.23-8.2 199.23-11.45L199.23-11.45Q199.23-15.1 200.76-17.85 202.28-20.6 204.98-22.08 207.68-23.55 211.08-23.55L211.08-23.55Q216.38-23.55 218.96-20.63 221.53-17.7 221.53-12.4L221.53-12.4Q221.53-11.05 221.38-9.6L221.38-9.6 204.88-9.6Q205.43-6.55 207.06-5.2 208.68-3.85 211.58-3.85L211.58-3.85Q213.98-3.85 215.53-4.25 217.08-4.65 218.38-5.35L218.38-5.35 220.03-1.5Q218.78-0.7 216.63-0.1 214.48 0.5 211.43 0.5L211.43 0.5ZM204.88-13.35L216.28-13.35Q216.33-16.45 214.93-17.73 213.53-19 210.93-19L210.93-19Q205.68-19 204.88-13.35L204.88-13.35ZM227.63 0L227.63-36.75 232.98-36.75 232.98 0 227.63 0ZM251.28 0.5Q247.73 0.5 244.98-1.1 242.23-2.7 240.73-5.45 239.23-8.2 239.23-11.55L239.23-11.55Q239.23-14.85 240.7-17.6 242.18-20.35 244.93-21.95 247.68-23.55 251.28-23.55L251.28-23.55Q254.88-23.55 257.6-21.95 260.33-20.35 261.8-17.6 263.28-14.85 263.28-11.55L263.28-11.55Q263.28-8.2 261.78-5.45 260.28-2.7 257.55-1.1 254.83 0.5 251.28 0.5L251.28 0.5ZM251.43-3.9Q254.33-3.9 256-6.05 257.68-8.2 257.68-11.45L257.68-11.45Q257.68-14.7 255.88-16.93 254.08-19.15 251.13-19.15L251.13-19.15Q248.28-19.15 246.55-16.95 244.83-14.75 244.83-11.45L244.83-11.45Q244.83-8.25 246.68-6.08 248.53-3.9 251.43-3.9L251.43-3.9ZM269.13 12.15L269.13-22.95 274.33-22.95 274.33-18.7Q277.08-23.55 282.93-23.55L282.93-23.55Q287.78-23.55 290.78-20.48 293.78-17.4 293.78-11.6L293.78-11.6Q293.78-8 292.3-5.25 290.83-2.5 288.3-1 285.78 0.5 282.68 0.5L282.68 0.5Q279.78 0.5 277.65-0.53 275.53-1.55 274.33-3.45L274.33-3.45 274.38 12.15 269.13 12.15ZM281.43-4.05Q284.68-4.05 286.43-6.13 288.18-8.2 288.18-11.45L288.18-11.45Q288.18-14.85 286.45-16.88 284.73-18.9 281.43-18.9L281.43-18.9Q279.63-18.9 278.05-18.03 276.48-17.15 275.55-15.53 274.63-13.9 274.63-11.75L274.63-11.75 274.63-11.4Q274.63-9.25 275.55-7.58 276.48-5.9 278.03-4.98 279.58-4.05 281.43-4.05L281.43-4.05ZM299.52 0L299.52-22.95 304.92-22.95 304.92-18.8Q306.02-21.15 308.15-22.35 310.27-23.55 313.02-23.55L313.02-23.55Q319.17-23.5 320.57-19.3L320.57-19.3Q321.67-21.25 323.87-22.4 326.07-23.55 328.52-23.55L328.52-23.55Q332.12-23.55 333.97-22.18 335.82-20.8 336.45-18.28 337.07-15.75 337.07-11.5L337.07-11.5 337.07 0 331.62 0 331.62-11.55Q331.62-15.6 330.8-17.35 329.97-19.1 327.62-19.1L327.62-19.1Q324.47-19.1 322.85-16.98 321.22-14.85 321.22-11.4L321.22-11.4 321.22 0 315.82 0 315.82-12.35Q315.82-15 315.62-16.3 315.42-17.6 314.52-18.35 313.62-19.1 311.62-19.1L311.62-19.1Q309.87-19.1 308.35-18.05 306.82-17 305.9-15.23 304.97-13.45 304.97-11.4L304.97-11.4 304.97 0 299.52 0ZM354.82 0.5Q350.72 0.5 347.97-1.13 345.22-2.75 343.92-5.48 342.62-8.2 342.62-11.45L342.62-11.45Q342.62-15.1 344.15-17.85 345.67-20.6 348.37-22.08 351.07-23.55 354.47-23.55L354.47-23.55Q359.77-23.55 362.35-20.63 364.92-17.7 364.92-12.4L364.92-12.4Q364.92-11.05 364.77-9.6L364.77-9.6 348.27-9.6Q348.82-6.55 350.44-5.2 352.07-3.85 354.97-3.85L354.97-3.85Q357.37-3.85 358.92-4.25 360.47-4.65 361.77-5.35L361.77-5.35 363.42-1.5Q362.17-0.7 360.02-0.1 357.87 0.5 354.82 0.5L354.82 0.5ZM348.27-13.35L359.67-13.35Q359.72-16.45 358.32-17.73 356.92-19 354.32-19L354.32-19Q349.07-19 348.27-13.35L348.27-13.35ZM370.57 0L370.57-22.95 375.87-22.95 375.92-18.75Q376.87-20.85 378.92-22.2 380.97-23.55 383.72-23.55L383.72-23.55Q387.27-23.55 389.17-22.08 391.07-20.6 391.72-17.95 392.37-15.3 392.37-11.05L392.37-11.05 392.37 0 386.97 0 386.97-10.9Q386.97-15.25 386.12-17.18 385.27-19.1 382.62-19.1L382.62-19.1Q381.12-19.1 379.57-18.18 378.02-17.25 376.99-15.5 375.97-13.75 375.97-11.4L375.97-11.4 375.97 0 370.57 0ZM401.32 0L401.32-18.55 397.27-18.55 397.27-22.95 401.32-22.95 401.32-32.3 406.77-33.5 406.77-22.95 412.07-22.95 412.07-18.55 406.77-18.55 406.77 0 401.32 0ZM445.76 0.35Q440.06 0.35 435.89-2.2 431.71-4.75 429.51-9.03 427.31-13.3 427.31-18.45L427.31-18.45Q427.31-23.9 429.69-28.2 432.06-32.5 436.36-34.93 440.66-37.35 446.11-37.35L446.11-37.35Q448.56-37.35 450.69-36.83 452.81-36.3 454.21-35.63 455.61-34.95 456.06-34.5L456.06-34.5 453.61-29.5Q450.56-32.2 445.66-32.2L445.66-32.2Q442.21-32.2 439.41-30.5 436.61-28.8 435.01-25.65 433.41-22.5 433.41-18.35L433.41-18.35Q433.41-14.55 434.84-11.45 436.26-8.35 439.01-6.55 441.76-4.75 445.56-4.75L445.56-4.75Q449.96-4.75 454.06-7.25L454.06-7.25 455.71-2.5Q454.61-1.5 451.69-0.58 448.76 0.35 445.76 0.35L445.76 0.35ZM471.86 0.5Q468.31 0.5 465.56-1.1 462.81-2.7 461.31-5.45 459.81-8.2 459.81-11.55L459.81-11.55Q459.81-14.85 461.28-17.6 462.76-20.35 465.51-21.95 468.26-23.55 471.86-23.55L471.86-23.55Q475.46-23.55 478.18-21.95 480.91-20.35 482.38-17.6 483.86-14.85 483.86-11.55L483.86-11.55Q483.86-8.2 482.36-5.45 480.86-2.7 478.13-1.1 475.41 0.5 471.86 0.5L471.86 0.5ZM472.01-3.9Q474.91-3.9 476.58-6.05 478.26-8.2 478.26-11.45L478.26-11.45Q478.26-14.7 476.46-16.93 474.66-19.15 471.71-19.15L471.71-19.15Q468.86-19.15 467.13-16.95 465.41-14.75 465.41-11.45L465.41-11.45Q465.41-8.25 467.26-6.08 469.11-3.9 472.01-3.9L472.01-3.9ZM489.61 0L489.61-22.95 495-22.95 495-18.8Q496.11-21.15 498.23-22.35 500.36-23.55 503.11-23.55L503.11-23.55Q509.25-23.5 510.66-19.3L510.66-19.3Q511.75-21.25 513.96-22.4 516.15-23.55 518.61-23.55L518.61-23.55Q522.21-23.55 524.06-22.18 525.9-20.8 526.53-18.28 527.15-15.75 527.15-11.5L527.15-11.5 527.15 0 521.71 0 521.71-11.55Q521.71-15.6 520.88-17.35 520.06-19.1 517.71-19.1L517.71-19.1Q514.56-19.1 512.93-16.98 511.31-14.85 511.31-11.4L511.31-11.4 511.31 0 505.91 0 505.91-12.35Q505.91-15 505.7-16.3 505.5-17.6 504.61-18.35 503.7-19.1 501.7-19.1L501.7-19.1Q499.95-19.1 498.43-18.05 496.91-17 495.98-15.23 495.06-13.45 495.06-11.4L495.06-11.4 495.06 0 489.61 0ZM534.15 12.15L534.15-22.95 539.35-22.95 539.35-18.7Q542.1-23.55 547.95-23.55L547.95-23.55Q552.8-23.55 555.8-20.48 558.8-17.4 558.8-11.6L558.8-11.6Q558.8-8 557.33-5.25 555.85-2.5 553.33-1 550.8 0.5 547.7 0.5L547.7 0.5Q544.8 0.5 542.68-0.53 540.55-1.55 539.35-3.45L539.35-3.45 539.4 12.15 534.15 12.15ZM546.45-4.05Q549.7-4.05 551.45-6.13 553.2-8.2 553.2-11.45L553.2-11.45Q553.2-14.85 551.48-16.88 549.75-18.9 546.45-18.9L546.45-18.9Q544.65-18.9 543.08-18.03 541.5-17.15 540.58-15.53 539.65-13.9 539.65-11.75L539.65-11.75 539.65-11.4Q539.65-9.25 540.58-7.58 541.5-5.9 543.05-4.98 544.6-4.05 546.45-4.05L546.45-4.05ZM574.7 0.5Q571.6 0.5 568.97-0.98 566.35-2.45 564.77-5.18 563.2-7.9 563.2-11.55L563.2-11.55Q563.2-15.15 564.57-17.85 565.95-20.55 568.5-22.05 571.05-23.55 574.5-23.55L574.5-23.55Q576.5-23.55 578.25-22.85 580-22.15 581.2-21.13 582.4-20.1 582.8-19.1L582.8-19.1 582.9-22.95 588.05-22.95 588.05 0 582.95 0 582.85-4.05Q582-2.25 579.75-0.88 577.5 0.5 574.7 0.5L574.7 0.5ZM575.6-4Q578.45-4 580.4-5.98 582.35-7.95 582.35-11.15L582.35-11.15 582.35-11.5Q582.35-13.65 581.45-15.35 580.55-17.05 579-18 577.45-18.95 575.6-18.95L575.6-18.95Q572.4-18.95 570.65-16.88 568.9-14.8 568.9-11.5L568.9-11.5Q568.9-8.15 570.62-6.08 572.35-4 575.6-4L575.6-4ZM595.3 0L595.3-22.95 600.6-22.95 600.65-18.75Q601.6-20.85 603.65-22.2 605.7-23.55 608.45-23.55L608.45-23.55Q612-23.55 613.9-22.08 615.8-20.6 616.45-17.95 617.1-15.3 617.1-11.05L617.1-11.05 617.1 0 611.7 0 611.7-10.9Q611.7-15.25 610.85-17.18 610-19.1 607.35-19.1L607.35-19.1Q605.85-19.1 604.3-18.18 602.75-17.25 601.72-15.5 600.7-13.75 600.7-11.4L600.7-11.4 600.7 0 595.3 0ZM625.69 12.6L630.64 0.7 621.14-22.95 627.24-22.95 632.14-8.35 633.24-4.8 634.34-8.35 639.49-22.95 645.39-22.95 631.29 12.6 625.69 12.6Z" opacity="1" transform="matrix(1,0,0,1,0,0)" fill="#010c80" class="wordmark-text-0" data-fill-palette-color="primary" id="text-0"></path></svg></g></svg></g><g transform="matrix(1,0,0,1,0,37.810938046023075)"><svg viewBox="0 0 395.52000000000004 18.904306622280718" height="18.904306622280718" width="395.52000000000004"><g transform="matrix(1,0,0,1,0,0)"><svg width="395.52000000000004" viewBox="-1.1 -37.8 1028.33 49.15" height="18.904306622280718" data-palette-color="#0080ff"><path d="M46.05-32.55L44-27.65 37.05-1.8 35.35 1.25 33.7 1.45 32.15-3.15 27.3-16.9 24.55-24.85 17.1-1.8 15.05 1.25 13.4 1.45 12.35-3.15 7.85-17.05 4.75-27.8 2.75-32.6-1.1-33.5-0.85-35.5 6-35 12.65-35.5 12.55-33.5 9.05-32.7 10.05-28.4 13.9-12.95 15.85-5.1 15.95-5.1 18.45-13.6 23.2-28.65 21.55-32.5 17.6-33.5 17.85-35.5 24.5-35 31.15-35.5 31.05-33.5 27.6-32.7 28.55-28.4 33.7-12.95 35.6-5.25 35.7-5.25 37.5-13.6 41.7-28.65 42.4-32.65 38.45-33.5 38.7-35.5 44.45-35 49.75-35.5 49.65-33.5 46.05-32.55ZM65.92-12.9L57.27-13.45 57.22-13 58.57-5.95 62.52-2.05 67.12-1.55 71.82-4.05 72.72-2.75 68.77 0.4 64.07 1 59.17-0.15 54.92-3.7 52.37-11.2 53.22-17.9 55.82-22.6 61.07-25.5 65.47-26.05 68.97-24.95 71.67-22.5 73.22-18.05 73.27-13.9 72.57-13.35 65.92-12.9ZM63.57-23.8L59.77-21.55 57.82-17.75 57.52-15.5 65.12-15.4 68.57-16.15 68.27-20.8 66.77-23.35 63.57-23.8ZM113.7-8.3L114.1-2.45 117.65-1.5 117.4 0.25 111.5 0 105.4 0.25 105.5-1.5 108.8-2.5 109.15-7.75 108.95-18.65 107.6-21.95 103.35-22.7 98.4-20.05 98.3-18.15 98-13.15 98.1-8.3 98.35-2.5 102-1.5 101.75 0.25 95.85 0 89.75 0.25 89.85-1.5 93.15-2.5 93.5-7.75 93.3-17.35 93.05-22.55 89.5-22.4 89.25-24.15 96.15-25.5 98.65-24.95 98.5-22.6 103.35-25.65 108.45-26 113.05-22.85 113.3-21.5 118.3-25.65 123.4-26 128-22.85 128.75-18.85 128.65-8.3 129.05-2.45 132.6-1.5 132.35 0.25 126.45 0 120.35 0.25 120.45-1.5 123.75-2.5 124.1-7.75 123.9-18.65 122.55-21.95 118.3-22.7 113.7-19.35 113.8-18.85 113.7-8.3ZM154.01-19.8L154.06-9.1 154.41-2.05 157.86-1.55 157.51 0.1 150.56 0.7 149.91-2.25 149.66-2.25 144.71 0.7 139.51 0.7 136.01-1.85 134.96-6.75 137.16-10.65 143.16-13.25 149.76-13.5 149.56-19.75 148.61-22.85 144.56-24 139.71-22.85 139.56-17.55 137.61-17.15 136.31-24 142.06-25.7 148.51-26 152.41-24.1 154.01-19.8ZM139.81-6.85L141.16-2.8 144.91-1.85 149.96-4.75 149.76-11.5 145.41-11.5 141.56-9.95 139.81-6.85ZM169.83-13.8L175.08-19.6 177.38-22.95 174.03-23.5 174.28-25.25 179.53-25 184.13-25.25 184.03-23.5 180.53-22.4 173.38-14.7 177.53-8.85 182.68-2.5 185.63-1.5 185.38 0.25 180.18 0 175.43 0.25 175.53-1.5 177.93-1.65 176.58-4.15 170.78-11.85 168.33-11.85 168.43-8.3 168.53-2.5 171.98-1.5 171.68 0.25 166.13 0 159.73 0.25 159.93-1.5 163.43-2.35 163.58-7.75 163.78-18.7 163.58-29.85 163.33-34.85 159.78-34.7 159.53-36.45 166.43-37.8 168.93-37.25 168.58-30.65 168.28-13.8 169.83-13.8ZM202.29-12.9L193.64-13.45 193.59-13 194.94-5.95 198.89-2.05 203.49-1.55 208.19-4.05 209.09-2.75 205.14 0.4 200.44 1 195.54-0.15 191.29-3.7 188.74-11.2 189.59-17.9 192.19-22.6 197.44-25.5 201.84-26.05 205.34-24.95 208.04-22.5 209.59-18.05 209.64-13.9 208.94-13.35 202.29-12.9ZM199.94-23.8L196.14-21.55 194.19-17.75 193.89-15.5 201.49-15.4 204.94-16.15 204.64-20.8 203.14-23.35 199.94-23.8ZM240.32-12.9L231.67-13.45 231.62-13 232.97-5.95 236.92-2.05 241.52-1.55 246.22-4.05 247.12-2.75 243.17 0.4 238.47 1 233.57-0.15 229.32-3.7 226.77-11.2 227.62-17.9 230.22-22.6 235.47-25.5 239.87-26.05 243.37-24.95 246.07-22.5 247.62-18.05 247.67-13.9 246.97-13.35 240.32-12.9ZM237.97-23.8L234.17-21.55 232.22-17.75 231.92-15.5 239.52-15.4 242.97-16.15 242.67-20.8 241.17-23.35 237.97-23.8ZM276.04-8.3L276.44-2.45 279.99-1.5 279.74 0.25 273.84 0 267.74 0.25 267.84-1.5 271.14-2.5 271.49-7.75 271.29-18.65 269.94-21.95 265.69-22.7 260.24-19.9 260.14-18.15 259.84-13.15 259.94-8.3 260.19-2.5 263.84-1.5 263.59 0.25 257.69 0 251.59 0.25 251.69-1.5 254.99-2.5 255.34-7.75 254.89-22.55 251.34-22.4 251.09-24.15 257.99-25.5 260.49-24.95 260.34-22.4 265.69-25.65 270.79-26 275.39-22.85 276.14-18.85 276.04-8.3ZM299.05-24.5L305.45-28.7 307.05-25.35 304.95-24.05 300.8-23.5 304.3-19.2 304.25-14.35 301.45-10.2 295.35-8.2 290.05-8.95 289.15-7.65 288.95-6.25 290.35-5.35 298.95-4 302.3-3.25 305.65-0.85 306.05 5.1 303.75 8.55 298.15 11.1 290.25 11.35 286.8 10.3 283.95 7.8 282.9 4.2 284.4-0.15 287.8-1.75 286-3.45 286-6.9 288.25-9.55 284-12.85 283.5-19.2 287.65-24 294-25.5 299.05-24.5ZM289.3-12.15L292.6-10.35 296.7-10.9 299.35-13.75 299.75-18.65 297.55-22.4 293.9-23.5 289.1-21.5 287.7-17.1 289.3-12.15ZM302.25 2.05L295.3-0.3 289.5-1.1 287.25 1.35 286.95 5.05 289.2 8.3 294.85 9.15 300.8 6.9 302.25 2.05ZM328.27-19.8L328.32-9.1 328.67-2.05 332.12-1.55 331.77 0.1 324.82 0.7 324.17-2.25 323.92-2.25 318.97 0.7 313.77 0.7 310.27-1.85 309.22-6.75 311.42-10.65 317.42-13.25 324.02-13.5 323.82-19.75 322.87-22.85 318.82-24 313.97-22.85 313.82-17.55 311.87-17.15 310.57-24 316.32-25.7 322.77-26 326.67-24.1 328.27-19.8ZM314.07-6.85L315.42-2.8 319.17-1.85 324.22-4.75 324.02-11.5 319.67-11.5 315.82-9.95 314.07-6.85ZM351.38-24.5L357.78-28.7 359.38-25.35 357.28-24.05 353.13-23.5 356.63-19.2 356.58-14.35 353.78-10.2 347.68-8.2 342.38-8.95 341.48-7.65 341.28-6.25 342.68-5.35 351.28-4 354.63-3.25 357.98-0.85 358.38 5.1 356.08 8.55 350.48 11.1 342.58 11.35 339.13 10.3 336.28 7.8 335.23 4.2 336.73-0.15 340.13-1.75 338.33-3.45 338.33-6.9 340.58-9.55 336.33-12.85 335.83-19.2 339.98-24 346.33-25.5 351.38-24.5ZM341.63-12.15L344.93-10.35 349.03-10.9 351.68-13.75 352.08-18.65 349.88-22.4 346.23-23.5 341.43-21.5 340.03-17.1 341.63-12.15ZM354.58 2.05L347.63-0.3 341.83-1.1 339.58 1.35 339.28 5.05 341.53 8.3 347.18 9.15 353.13 6.9 354.58 2.05ZM370.5-24.95L370.15-18.15 369.85-13.15 370-8.3 370.2-2.5 373.85-1.5 373.6 0.25 367.7 0 361.6 0.25 361.7-1.5 365-2.5 365.25-7.75 365.15-17.35 364.9-22.55 361.35-22.4 361.1-24.15 368-25.5 370.5-24.95ZM363.45-34.4L364.6-36.25 366.85-37.3 369.15-36.55 370.2-33.95 368.85-31.85 366.6-30.95 364.5-32.25 363.45-34.4ZM401.26-8.3L401.66-2.45 405.21-1.5 404.96 0.25 399.06 0 392.96 0.25 393.06-1.5 396.36-2.5 396.71-7.75 396.51-18.65 395.16-21.95 390.91-22.7 385.46-19.9 385.36-18.15 385.06-13.15 385.16-8.3 385.41-2.5 389.06-1.5 388.81 0.25 382.91 0 376.81 0.25 376.91-1.5 380.21-2.5 380.56-7.75 380.11-22.55 376.56-22.4 376.31-24.15 383.21-25.5 385.71-24.95 385.56-22.4 390.91-25.65 396.01-26 400.61-22.85 401.36-18.85 401.26-8.3ZM424.28-24.5L430.68-28.7 432.28-25.35 430.18-24.05 426.03-23.5 429.53-19.2 429.48-14.35 426.68-10.2 420.58-8.2 415.28-8.95 414.38-7.65 414.18-6.25 415.58-5.35 424.18-4 427.53-3.25 430.88-0.85 431.28 5.1 428.98 8.55 423.38 11.1 415.48 11.35 412.03 10.3 409.18 7.8 408.13 4.2 409.63-0.15 413.03-1.75 411.23-3.45 411.23-6.9 413.48-9.55 409.23-12.85 408.73-19.2 412.88-24 419.23-25.5 424.28-24.5ZM414.53-12.15L417.83-10.35 421.93-10.9 424.58-13.75 424.98-18.65 422.78-22.4 419.13-23.5 414.33-21.5 412.93-17.1 414.53-12.15ZM427.48 2.05L420.53-0.3 414.73-1.1 412.48 1.35 412.18 5.05 414.43 8.3 420.08 9.15 426.03 6.9 427.48 2.05ZM466.06-19.8L466.11-9.1 466.46-2.05 469.91-1.55 469.56 0.1 462.61 0.7 461.96-2.25 461.71-2.25 456.76 0.7 451.56 0.7 448.06-1.85 447.01-6.75 449.21-10.65 455.21-13.25 461.81-13.5 461.61-19.75 460.66-22.85 456.61-24 451.76-22.85 451.61-17.55 449.66-17.15 448.36-24 454.11-25.7 460.56-26 464.46-24.1 466.06-19.8ZM451.86-6.85L453.21-2.8 456.96-1.85 462.01-4.75 461.81-11.5 457.46-11.5 453.61-9.95 451.86-6.85ZM497.03-8.3L497.43-2.45 500.98-1.5 500.73 0.25 494.83 0 488.73 0.25 488.83-1.5 492.13-2.5 492.48-7.75 492.28-18.65 490.93-21.95 486.68-22.7 481.23-19.9 481.13-18.15 480.83-13.15 480.93-8.3 481.18-2.5 484.83-1.5 484.58 0.25 478.68 0 472.58 0.25 472.68-1.5 475.98-2.5 476.33-7.75 475.88-22.55 472.33-22.4 472.08-24.15 478.98-25.5 481.48-24.95 481.33-22.4 486.68-25.65 491.78-26 496.38-22.85 497.13-18.85 497.03-8.3ZM523.14 0.7L522.19-2.25 521.94-2.25 516.39 1 510.84 0.4 507.19-2.2 504.29-8.15 504.24-16.65 506.14-20.6 511.89-25.25 517.44-26 522.29-24.75 521.99-34.3 517.84-34.7 518.09-36.45 524.99-37.8 526.99-37.25 526.64-17.9 526.99-2.05 530.44-1.55 530.09 0.1 523.14 0.7ZM510.54-4.6L514.84-1.55 522.19-4.35 522.29-22 516.74-23.75 513.59-22.85 509.74-18.75 509.04-13 510.54-4.6ZM554.07-24.95L553.77-17.25 553.77-6.35 555.12-3.05 559.32-2.5 564.77-5.75 564.77-11.05 564.72-17.3 564.47-22.5 560.92-22.35 560.67-24.1 567.57-25.45 570.07-24.9 569.72-18.1 569.67-14.1 569.77-11.05 569.77-2.05 573.27-1.05 573.02 0.7 566.17 0.7 565.02-3.5 559.37 0.65 554.27 1 549.67-2.15 548.92-6.15 548.97-16.85 548.47-22.55 544.92-22.4 544.67-24.15 551.57-25.5 554.07-24.95ZM579.79-7.5L580.19-1.95 584.34-1.3 588.99-1.95 590.09-5.35 588.74-7.95 579.44-13.6 577.44-16.75 577.34-22.05 580.89-25.05 586.14-26 593.49-24.5 592.44-17.15 590.34-17.85 589.39-23.05 585.94-23.7 582.19-22.85 581.24-20.1 582.44-17.15 592.04-11.65 594.39-8.7 594.59-4 591.19 0 585.19 1 581.04 0.8 576.39-1 577.64-8.2 579.79-7.5ZM612.75-12.9L604.1-13.45 604.05-13 605.4-5.95 609.35-2.05 613.95-1.55 618.65-4.05 619.55-2.75 615.6 0.4 610.9 1 606-0.15 601.75-3.7 599.2-11.2 600.05-17.9 602.65-22.6 607.9-25.5 612.3-26.05 615.8-24.95 618.5-22.5 620.05-18.05 620.1-13.9 619.4-13.35 612.75-12.9ZM610.4-23.8L606.6-21.55 604.65-17.75 604.35-15.5 611.95-15.4 615.4-16.15 615.1-20.8 613.6-23.35 610.4-23.8ZM632.92-24.95L632.72-20.9 632.92-20.9 636.02-24.45 639.42-25.95 643.17-25 642.32-17.55 640.57-17.9 639.32-23.05 636.07-22 632.52-17.85 632.27-13.15 632.42-8.3 632.62-2.5 637.62-1.5 637.37 0.25 630.12 0 624.02 0.25 624.12-1.5 627.42-2.5 627.67-7.75 627.57-17.35 627.32-22.55 623.77-22.4 623.52-24.15 630.42-25.5 632.92-24.95ZM677.25-16.9L676.35-23.15 670.05-23.65 665.55-18.85 664.25-13.65 664.9-8.35 668.1-2.55 674.25-1.55 678.95-4.05 679.85-2.75 675.9 0.4 671.2 1 664.05-1.05 659.6-8.3 659.55-16.65 662.95-22.6 668.2-25.35 672.75-26 680.4-25 678.9-17.15 677.25-16.9ZM697.96-12.9L689.31-13.45 689.26-13 690.61-5.95 694.56-2.05 699.16-1.55 703.86-4.05 704.76-2.75 700.81 0.4 696.11 1 691.21-0.15 686.96-3.7 684.41-11.2 685.26-17.9 687.86-22.6 693.11-25.5 697.51-26.05 701.01-24.95 703.71-22.5 705.26-18.05 705.31-13.9 704.61-13.35 697.96-12.9ZM695.61-23.8L691.81-21.55 689.86-17.75 689.56-15.5 697.16-15.4 700.61-16.15 700.31-20.8 698.81-23.35 695.61-23.8ZM733.68-8.3L734.08-2.45 737.63-1.5 737.38 0.25 731.48 0 725.38 0.25 725.48-1.5 728.78-2.5 729.13-7.75 728.93-18.65 727.58-21.95 723.33-22.7 717.88-19.9 717.78-18.15 717.48-13.15 717.58-8.3 717.83-2.5 721.48-1.5 721.23 0.25 715.33 0 709.23 0.25 709.33-1.5 712.63-2.5 712.98-7.75 712.53-22.55 708.98-22.4 708.73-24.15 715.63-25.5 718.13-24.95 717.98-22.4 723.33-25.65 728.43-26 733.03-22.85 733.78-18.85 733.68-8.3ZM754.54-1.2L751.74 0.5 748.34 1 744.79-0.2 743.19-4.2 743.44-13.5 743.19-21.9 739.74-22.4 739.44-24.15 743.39-25.2 745.19-30.25 747.74-30.25 747.59-24.65 753.64-24.45 753.34-22.25 748.09-21.9 747.89-19.6 748.09-4.45 749.09-1.45 753.79-2.7 754.54-1.2ZM765.86-24.95L765.66-20.9 765.86-20.9 768.96-24.45 772.36-25.95 776.11-25 775.26-17.55 773.51-17.9 772.26-23.05 769.01-22 765.46-17.85 765.21-13.15 765.36-8.3 765.56-2.5 770.56-1.5 770.31 0.25 763.06 0 756.96 0.25 757.06-1.5 760.36-2.5 760.61-7.75 760.51-17.35 760.26-22.55 756.71-22.4 756.46-24.15 763.36-25.5 765.86-24.95ZM788.12-24.95L787.77-18.15 787.47-13.15 787.62-8.3 787.82-2.5 791.47-1.5 791.22 0.25 785.32 0 779.22 0.25 779.32-1.5 782.62-2.5 782.87-7.75 782.77-17.35 782.52-22.55 778.97-22.4 778.72-24.15 785.62-25.5 788.12-24.95ZM781.07-34.4L782.22-36.25 784.47-37.3 786.77-36.55 787.82-33.95 786.47-31.85 784.22-30.95 782.12-32.25 781.07-34.4ZM812.84-16.9L811.94-23.15 805.64-23.65 801.14-18.85 799.84-13.65 800.49-8.35 803.69-2.55 809.84-1.55 814.54-4.05 815.44-2.75 811.49 0.4 806.79 1 799.64-1.05 795.19-8.3 795.14-16.65 798.54-22.6 803.79-25.35 808.34-26 815.99-25 814.49-17.15 812.84-16.9ZM843.52 1.5L836.22-18.2 833.97-22.6 830.62-23.5 830.87-25.25 836.97-25 843.07-25.25 842.97-23.5 839.57-22.5 840.37-19.6 843.07-11.25 845.07-3.95 845.22-3.95 846.57-9.05 850.37-19.8 848.97-22.6 845.62-23.5 845.87-25.25 851.97-25 858.07-25.25 857.97-23.5 854.57-22.5 855.37-19.6 857.77-11.25 859.77-3.95 859.92-3.95 861.27-9.05 864.77-19.45 865.57-22.65 861.67-23.5 861.92-25.25 866.82-25 872.12-25.25 872.02-23.5 868.92-22.5 866.77-17.9 861.42-1.45 859.87 1.15 858.22 1.5 851.82-16.4 846.72-1.45 845.17 1.15 843.52 1.5ZM888.44-12.9L879.79-13.45 879.74-13 881.09-5.95 885.04-2.05 889.64-1.55 894.34-4.05 895.24-2.75 891.29 0.4 886.59 1 881.69-0.15 877.44-3.7 874.89-11.2 875.74-17.9 878.34-22.6 883.59-25.5 887.99-26.05 891.49-24.95 894.19-22.5 895.74-18.05 895.79-13.9 895.09-13.35 888.44-12.9ZM886.09-23.8L882.29-21.55 880.34-17.75 880.04-15.5 887.64-15.4 891.09-16.15 890.79-20.8 889.29-23.35 886.09-23.8ZM907.15-37.25L906.55-22.85 906.9-22.5 912.1-25.35 917.55-25.5 922.85-21.45 924.95-13.1 923.45-5.65 919.85-1.1 912.65 1 903.2-0.25 901.45-2 901.85-18.5 901.8-29.85 901.55-34.85 898-34.7 897.75-36.45 904.65-37.8 907.15-37.25ZM906.55-20.1L906.45-7.65 906.85-3 913.35-1.55 918.3-4.65 919.75-10.15 919.55-16.75 916-21.9 912.9-22.65 906.55-20.1ZM932.57-7.5L932.97-1.95 937.12-1.3 941.77-1.95 942.87-5.35 941.52-7.95 932.22-13.6 930.22-16.75 930.12-22.05 933.67-25.05 938.92-26 946.27-24.5 945.22-17.15 943.12-17.85 942.17-23.05 938.72-23.7 934.97-22.85 934.02-20.1 935.22-17.15 944.82-11.65 947.17-8.7 947.37-4 943.97 0 937.97 1 933.82 0.8 929.17-1 930.42-8.2 932.57-7.5ZM960.23-24.95L959.88-18.15 959.58-13.15 959.73-8.3 959.93-2.5 963.58-1.5 963.33 0.25 957.43 0 951.33 0.25 951.43-1.5 954.73-2.5 954.98-7.75 954.88-17.35 954.63-22.55 951.08-22.4 950.83-24.15 957.73-25.5 960.23-24.95ZM953.18-34.4L954.33-36.25 956.58-37.3 958.88-36.55 959.93-33.95 958.58-31.85 956.33-30.95 954.23-32.25 953.18-34.4ZM981-1.2L978.2 0.5 974.8 1 971.25-0.2 969.65-4.2 969.9-13.5 969.65-21.9 966.2-22.4 965.9-24.15 969.85-25.2 971.65-30.25 974.2-30.25 974.05-24.65 980.1-24.45 979.8-22.25 974.55-21.9 974.35-19.6 974.55-4.45 975.55-1.45 980.25-2.7 981-1.2ZM997.61-12.9L988.96-13.45 988.91-13 990.26-5.95 994.21-2.05 998.81-1.55 1003.51-4.05 1004.41-2.75 1000.46 0.4 995.76 1 990.86-0.15 986.61-3.7 984.06-11.2 984.91-17.9 987.51-22.6 992.76-25.5 997.16-26.05 1000.66-24.95 1003.36-22.5 1004.91-18.05 1004.96-13.9 1004.26-13.35 997.61-12.9ZM995.26-23.8L991.46-21.55 989.51-17.75 989.21-15.5 996.81-15.4 1000.26-16.15 999.96-20.8 998.46-23.35 995.26-23.8ZM1012.43-7.5L1012.83-1.95 1016.98-1.3 1021.63-1.95 1022.73-5.35 1021.38-7.95 1012.08-13.6 1010.08-16.75 1009.98-22.05 1013.53-25.05 1018.78-26 1026.13-24.5 1025.08-17.15 1022.98-17.85 1022.03-23.05 1018.58-23.7 1014.83-22.85 1013.88-20.1 1015.08-17.15 1024.68-11.65 1027.03-8.7 1027.23-4 1023.83 0 1017.83 1 1013.68 0.8 1009.03-1 1010.28-8.2 1012.43-7.5Z" opacity="1" transform="matrix(1,0,0,1,0,0)" fill="#0080ff" class="slogan-text-1" data-fill-palette-color="secondary" id="text-1"></path></svg></g></svg></g></svg></g></svg></g><g transform="matrix(1,0,0,1,148.64157330419994,0)"><svg viewBox="0 0 98.23685339160014 78.38046813159585" height="78.38046813159585" width="98.23685339160014"><g><svg xmlns="http://www.w3.org/2000/svg" xmlns:xlink="http://www.w3.org/1999/xlink" version="1.1" x="0" y="0" viewBox="1 13 94 75" enable-background="new 0 0 96 96" xml:space="preserve" height="78.38046813159585" width="98.23685339160014" class="icon-icon-0" data-fill-palette-color="accent" id="icon-0"><g fill="#0023ff" data-fill-palette-color="accent"><path fill="#0023ff" d="M90 82H86V80H90C91.654 80 93 78.654 93 77V18C93 16.346 91.654 15 90 15H6C4.346 15 3 16.346 3 18V77C3 78.654 4.346 80 6 80H52V82H6C3.243 82 1 79.757 1 77V18C1 15.243 3.243 13 6 13H90C92.757 13 95 15.243 95 18V77C95 79.757 92.757 82 90 82" data-fill-palette-color="accent"></path></g><g fill="#0023ff" data-fill-palette-color="accent"><rect x="2" y="26" fill="#0023ff" width="91" height="2" data-fill-palette-color="accent"></rect></g><g fill="#0023ff" data-fill-palette-color="accent"><path fill="#0023ff" d="M10.5 22C9.673 22 9 21.327 9 20.5S9.673 19 10.5 19 12 19.673 12 20.5 11.327 22 10.5 22M10.5 20A0.5 0.5 0 1 0 10.5 21 0.5 0.5 0 0 0 10.5 20" data-fill-palette-color="accent"></path></g><g fill="#0023ff" data-fill-palette-color="accent"><path fill="#0023ff" d="M17.5 22C16.673 22 16 21.327 16 20.5S16.673 19 17.5 19 19 19.673 19 20.5 18.327 22 17.5 22M17.5 20A0.5 0.5 0 1 0 17.5 21 0.5 0.5 0 0 0 17.5 20" data-fill-palette-color="accent"></path></g><g fill="#0023ff" data-fill-palette-color="accent"><path fill="#0023ff" d="M24.5 22C23.673 22 23 21.327 23 20.5S23.673 19 24.5 19 26 19.673 26 20.5 25.327 22 24.5 22M24.5 20A0.5 0.5 0 1 0 24.5 21 0.5 0.5 0 0 0 24.5 20" data-fill-palette-color="accent"></path></g><g fill="#0023ff" data-fill-palette-color="accent"><g fill="#0023ff" data-fill-palette-color="accent"><path fill="#0023ff" d="M77 88H61C58.243 88 56 85.757 56 83V48C56 45.243 58.243 43 61 43H77C79.757 43 82 45.243 82 48V83C82 85.757 79.757 88 77 88M61 45C59.346 45 58 46.346 58 48V83C58 84.654 59.346 86 61 86H77C78.654 86 80 84.654 80 83V48C80 46.346 78.654 45 77 45z" data-fill-palette-color="accent"></path></g><g fill="#0023ff" data-fill-palette-color="accent"><path fill="#0023ff" d="M81 53H57A1 1 0 0 1 57 51H81A1 1 0 0 1 81 53" data-fill-palette-color="accent"></path></g><g fill="#0023ff" data-fill-palette-color="accent"><path fill="#0023ff" d="M81 80H57A1 1 0 0 1 57 78H81A1 1 0 0 1 81 80" data-fill-palette-color="accent"></path></g></g></svg></g></svg></g><g></g></svg></g><defs></defs></svg><rect width="395.5199999999999" height="142.31715792961083" fill="none" stroke="none" visibility="hidden"></rect></g></svg></g></svg>